<?xml version="1.0" encoding="UTF-8" standalone="no"?>
<svg
   xmlns:dc="http://purl.org/dc/elements/1.1/"
   xmlns:cc="http://creativecommons.org/ns#"
   xmlns:rdf="http://www.w3.org/1999/02/22-rdf-syntax-ns#"
   xmlns:svg="http://www.w3.org/2000/svg"
   xmlns="http://www.w3.org/2000/svg"
   xmlns:sodipodi="http://sodipodi.sourceforge.net/DTD/sodipodi-0.dtd"
   xmlns:inkscape="http://www.inkscape.org/namespaces/inkscape"
   width="533.28833"
   height="694.32562"
   viewBox="0 0 426.63067 555.4605"
   id="svg2"
   version="1.1"
   inkscape:version="0.92.4 (5da689c313, 2019-01-14)"
   sodipodi:docname="Sumskaya_oblast_location_map1.svg">
  <metadata
     id="metadata704">
    <rdf:RDF>
      <cc:Work
         rdf:about="">
        <dc:format>image/svg+xml</dc:format>
        <dc:type
           rdf:resource="http://purl.org/dc/dcmitype/StillImage" />
        <dc:title></dc:title>
      </cc:Work>
    </rdf:RDF>
  </metadata>
  <defs
     id="defs702">
    <inkscape:path-effect
       effect="spiro"
       id="path-effect4548"
       is_visible="true" />
    <inkscape:path-effect
       effect="spiro"
       id="path-effect4544"
       is_visible="true" />
    <inkscape:path-effect
       effect="spiro"
       id="path-effect4540"
       is_visible="true" />
    <inkscape:path-effect
       effect="spiro"
       id="path-effect4536"
       is_visible="true" />
  </defs>
  <sodipodi:namedview
     pagecolor="#ffffff"
     bordercolor="#666666"
     borderopacity="1"
     objecttolerance="10"
     gridtolerance="10"
     guidetolerance="10"
     inkscape:pageopacity="0"
     inkscape:pageshadow="2"
     inkscape:window-width="1366"
     inkscape:window-height="706"
     id="namedview700"
     showgrid="false"
     fit-margin-top="0"
     fit-margin-left="0"
     fit-margin-right="0"
     fit-margin-bottom="0"
     inkscape:zoom="1.1246636"
     inkscape:cx="253.64659"
     inkscape:cy="291.43159"
     inkscape:window-x="-8"
     inkscape:window-y="-8"
     inkscape:window-maximized="1"
     inkscape:current-layer="layer1" />
  <g
     inkscape:groupmode="layer"
     id="layer1"
     inkscape:label="admin3"
     style="display:inline">
    <path
       style="fill:none;stroke:#000000;stroke-width:0.80000001px;stroke-linecap:butt;stroke-linejoin:miter;stroke-opacity:1"
       d="m 86.764489,23.860515 5.0652,0.584798 4.561768,-3.598262 1.439,-0.72 2.640003,3.84 -0.480003,5.519 -0.48,2.880001 2.400483,3.601136 3.12031,-0.240625 4.32041,-4.559512 6.479,-5.519999 9.361,-4.32 6.239,-1.68 5.52,-10e-7 c 0,0 3.84056,-1.680351 5.76028,1.199824 1.91972,2.880176 4.56072,8.639177 4.56072,8.639177 l 5.519,4.801 4.561,3.839999 4.079,8.160001 4.56,5.28 5.52,3.838999 4.56,4.561001 3.84,7.919999 -0.48,5.519001 -1.68,5.521 0.48059,6.719821 1.43941,8.879184 4.32,8.640993 v 3.84 l -0.719,4.56 h 6.719 l 5.281,5.28 5.759,6.00001 1.201,3.84 1.67928,1.92076 4.32072,-1.20177 5.04,4.561 7.439,6.96001 3.601,5.28 2.639,9.36 0.24153,6.24076 -5.28125,6 -1.92031,0.71874 -11.75897,0.72049 -8.161,1.92 -8.879,2.16 -3.601,0.72001 -5.52,3.12 -1.2,5.27899 1.441,2.16101 5.519,1.91899 1.44121,0.95989 1.67813,8.16093 4.08066,5.04018 3.84,5.28 2.16,6.72001 -0.33224,2.8133 -3.599,-1.2 -3.1416,1.06834 -2.13907,2.77193 -3.33421,-3.22564 -0.60172,-5.2228 -1.58183,0.52432 -4.18849,6.96318 -3.73408,-1.43939 -1.23311,-6.10123 -1.52344,-3.25938 -0.575,5.05938 -3.14845,-2.18697 3e-5,-6e-4 -2.8293,-0.37664 -0.21625,2.78544 h -2.95448 l 2.64001,6.13972 -0.41713,2.40738 -2.18603,2.08095 -5.07745,1.13196 v -3.84062 l -3.49907,1.2007 -3.05638,0.0761 -1.19924,1.28727 -1.3647,-1.47092 2.0314,-6.98096 -2.12764,-1.98406 -3.01166,2.48563 -4.63052,0.0175 -1.38158,-2.79058 -5.41998,-1.58129 -4.90001,-6.33902 -2.59688,-3.83907 -1.24374,-3.39531 2.6416,-1.88531 -2.63327,-3.59485 -7.92773,-4.56511 4.08033,-1.84695 2.46094,-3.20313 -4.27031,-0.82187 -3.62344,0.43906 -5.53307,-5.12715 -2.34193,2.63969 -2.53281,-4e-5 -2.48926,-4.13929 -6.510941,-3.95924 0.120464,-3.90108 -2.388264,2.14804 -7.211624,1.58434 -2.338152,-3.63972 -6.780664,2.54605 -0.6,1.73746 -7.543633,3.3028 -3.51887,-1.19967 -1.77868,1.19967 1.09241,2.64104 -2.60845,0.0761 -2.56396,2.02596 -1.07569,-0.90211 -0.43942,1.51608 -3.76527,1.89329 3.8e-4,-4.60933 -1.54759,-1.44 -1.701228,0.60871 0.03594,3.125 -2.142187,-1.17031 -1.120313,-2.33907 0.781361,-1.46417 -1.11e-4,-2.40145 -2.63989,-2.63855 -4.800001,-5.04 -2.565055,-5.45268 -1.754945,-5.34732 -0.479,-4.561 1.439,-5.279 1.92,-3.601 4.559999,-3.359 1.440002,-3.36 1.44,-3.361 2.880001,-0.719 h 0.72 l -7.36e-4,-1.67989 -0.959375,-2.87969 2.641111,-0.72142 2.399,0.241 3.12,0.24 0.719577,-2e-4 4.080423,-3.1198 2.4,-2.16 1.919577,-0.95927 3.361423,-0.24173 5.758892,-1.92076 1.920112,-0.71824 1.68,-2.64 c 0,0 -0.961,-2.882 -1.2,-3.601 -0.239,-0.719 -1.198552,-2.6392 -1.198552,-2.6392 l -0.960936,-1.2 1.679488,-1.6798 1.20176,-3.359269 0.174296,-3.436408 -0.41648,-4.004216 0.480424,-1.440112 0.961,-0.96 1.679,1.679 2.64,1.441 4.8,-0.481 2.159888,-0.718576 1.681112,-1.680424 1.199,-3.601 0.24,-2.159 -0.960736,-0.961136 -4.318752,-0.239064 -4.081248,-5.039062 -1.679264,-2.400736 -2.398864,-2.880514 -3.601136,-2.400486 -3.120004,-1.199 -2.16,-1.44 -1.159486,-7.340201 0.199486,-5.619799 1.2,-2.401 3.119268,-3.35889 1.200736,-2.16011 0.72,-4.08 0.24,-3.361 1.201,-2.399 1.439,-1.92 0.48,-2.88 0.72,-3.6 z"
       id="path3796"
       inkscape:connector-curvature="0" />
    <path
       style="fill:none;stroke:#000000;stroke-width:1px;stroke-linecap:butt;stroke-linejoin:miter;stroke-opacity:1"
       d="M 124.87305 205.375 L 121.88672 208.06055 L 112.87305 210.04102 L 109.95117 205.49023 L 101.47461 208.67383 L 100.72461 210.8457 C 100.72461 210.8457 91.295067 214.9742 91.294922 214.97461 C 91.294777 214.97501 86.896484 213.47461 86.896484 213.47461 L 84.673828 214.97461 L 86.039062 218.27539 L 82.777344 218.37109 L 79.572266 220.90234 L 78.228516 219.77539 L 77.679688 221.66992 L 72.972656 224.03711 L 72.972656 218.27539 L 71.039062 216.47461 L 68.912109 217.23633 L 68.957031 221.14258 L 64.357422 217.32617 L 62.855469 220.625 L 63.15625 224.22656 L 66.15625 226.02539 L 67.054688 229.92578 L 67.054688 233.82617 L 67.355469 238.32422 L 68.855469 241.32617 L 70.955078 243.42578 L 70.65625 244.92578 L 66.757812 246.42578 L 65.556641 249.125 L 65.855469 252.72656 L 67.65625 256.32617 L 71.857422 261.125 L 68.855469 265.625 L 67.65625 265.92578 L 61.355469 262.625 L 60.455078 263.22461 L 61.957031 268.92578 L 61.355469 272.82617 L 58.65625 274.625 L 58.355469 275.82422 L 58.355469 279.42383 L 60.15625 284.82617 L 61.957031 286.625 L 61.957031 287.82617 L 60.455078 290.82422 L 60.757812 295.32617 L 60.455078 298.625 L 58.65625 301.02539 L 53.257812 302.52539 L 49.955078 302.22656 L 47.855469 300.42578 L 46.054688 296.22656 L 45.455078 295.32617 L 42.15625 294.42383 L 40.65625 296.52539 L 39.755859 298.625 L 40.054688 301.625 L 42.455078 306.72656 L 43.355469 308.82617 L 47.255859 309.42383 L 49.054688 310.92578 L 48.755859 314.22656 L 48.15625 318.125 L 49.357422 321.42578 L 52.054688 324.125 L 51.757812 326.22656 L 50.556641 329.52344 L 51.455078 334.92578 C 51.455078 334.92578 49.357421 337.32616 49.357422 337.32617 C 49.357423 337.32618 46.957501 338.52501 45.15625 339.125 C 43.354998 339.72499 44.855469 340.32617 44.855469 340.32617 L 44.855469 344.22656 L 44.554688 347.82617 L 42.755859 350.52539 L 36.9375 352.45508 L 33.755859 353.52539 L 32.855469 355.32617 L 32.855469 359.82617 L 34.056641 363.125 L 34.355469 364.92578 L 33.455078 367.92578 L 30.15625 373.32422 L 28.955078 376.02539 L 29.855469 377.52539 L 32.556641 378.42578 L 35.365234 379.33398 L 39.755859 381.125 L 42.15625 382.32617 L 44.257812 382.92578 L 46.957031 382.32617 C 46.957031 382.32617 48.756249 382.02343 49.65625 382.02344 C 50.556251 382.02345 50.855469 383.22461 50.855469 383.22461 C 50.855469 383.22461 50.855392 384.12618 50.556641 385.32617 C 50.257889 386.52616 49.65625 386.52539 49.65625 386.52539 L 47.255859 388.32422 L 46.957031 390.125 C 46.957031 390.125 47.855861 391.02501 48.755859 391.625 C 49.655857 392.22499 52.955078 394.02539 52.955078 394.02539 L 58.355469 395.52539 C 58.355469 395.52539 62.255 396.42656 63.15625 396.72656 C 64.0575 397.02656 64.054688 396.42578 64.054688 396.42578 L 66.757812 391.92383 C 66.757812 391.92383 67.955078 389.22657 67.955078 389.22656 C 67.955078 389.22655 69.457031 387.125 69.457031 387.125 L 70.355469 386.82422 L 74.257812 388.32422 L 75.15625 390.125 L 73.056641 395.22656 L 70.417969 399.92383 L 67.355469 402.72656 L 66.15625 405.125 L 66.757812 407.52539 L 68.257812 409.02539 L 71.554688 412.32617 L 71.554688 413.22461 L 71.255859 415.92578 L 71.673828 418.08594 L 79.572266 415.07617 L 84.837891 414.63086 L 88.660156 413.30469 L 99.373047 413.875 L 101.89453 418.33398 L 105.80664 417.17578 L 111.62891 418.46094 L 115.65625 417.17578 L 118.96875 417.08008 L 119.32812 412.82812 L 120.2207 411.17773 L 123.97461 407.57617 L 127.27344 407.57617 L 128.90039 409.0332 L 132.07227 407.57617 L 135.84766 409.85156 L 136.87305 415.67578 L 143.17383 415.67578 L 145.92383 418.42578 L 151.27344 418.8418 L 152.03516 416.71484 L 158.24805 412.56445 L 166.70117 407.84766 L 171.07227 407.875 L 171.74609 409.67578 L 180.97266 409.67578 L 183.2793 408.17578 L 187.69531 408.23633 L 190.21289 409.49609 L 193.80078 409.67578 L 195.67383 404.87305 L 195.97266 398.57617 L 198.2793 400.07617 L 203.17383 396.17383 L 204.37305 387.17578 L 206.00781 385.67578 L 215.77344 385.67578 L 217.57422 380.875 L 222.67383 379.375 L 225.44922 375.13867 L 224.47266 373.07617 L 229.76367 368.08594 L 233.65625 365.95312 L 234.62109 359.93555 L 233.17383 353.57422 L 236.77344 350.57617 L 238.57227 347.27539 L 238.875 337.88281 C 238.875 337.88281 246.18906 333.85975 246.78906 333.25977 C 247.38906 332.65977 253.08789 329.05859 253.08789 329.05859 C 253.08789 329.05859 255.78867 326.65781 256.38867 325.75781 C 256.98867 324.85781 260.28906 321.85742 260.28906 321.85742 L 263.28906 316.1582 C 263.28906 316.1582 265.0875 312.85858 265.6875 311.05859 C 266.2875 309.25859 264.78906 305.6582 264.78906 305.6582 L 264.18945 301.75781 L 262.6875 302.95703 L 260.88867 303.85938 L 256.08789 303.55859 L 250.38867 300.85938 L 247.6875 298.45898 L 245.58789 296.35938 L 243.78906 292.45898 L 244.08984 291.55859 L 245.58789 290.6582 L 248.58789 290.05859 L 249.78906 288.25781 L 250.08789 284.05859 L 249.18945 278.6582 L 249.48828 275.95898 L 251.28906 269.35742 L 250.87305 266.875 L 246.375 265.375 L 242.44727 266.71094 L 239.77344 270.17578 L 235.60547 266.14453 L 234.85352 259.61523 L 232.87695 260.27148 L 227.64062 268.97461 L 222.97266 267.17578 L 221.43164 259.54883 L 219.52734 255.47461 L 218.80859 261.79883 L 214.87305 259.06445 L 211.33594 258.59375 L 211.06641 262.07617 L 207.37305 262.07617 L 210.67383 269.75 L 210.15234 272.75977 L 207.41992 275.36133 L 201.07227 276.77539 L 201.07227 271.97461 L 196.69922 273.47461 L 192.87891 273.57031 L 191.37891 275.17969 L 189.67383 273.3418 L 192.21289 264.61523 L 189.55273 262.13477 L 185.78906 265.24219 L 180 265.26367 L 178.27344 261.77539 L 171.49805 259.79883 L 162.12695 247.07617 L 160.57227 242.83203 L 163.875 240.47461 L 160.58203 235.98242 L 150.67383 230.27539 L 155.77344 227.9668 L 158.84961 223.96289 L 153.51172 222.93555 L 148.98242 223.48438 L 142.06641 217.07617 L 139.13867 220.375 L 135.97266 220.375 L 132.86133 215.20117 L 124.72266 210.25195 L 124.87305 205.375 z "
       transform="scale(0.80000001)"
       id="path3806" />
    <path
       style="fill:none;stroke:#000000;stroke-width:0.80000001px;stroke-linecap:butt;stroke-linejoin:miter;stroke-opacity:1"
       d="m 57.339063,334.46876 6.318751,-2.40782 4.2125,-0.35625 c 0,0 -1.414387,-1.09935 3.057812,-1.06093 4.472199,0.0384 8.57029,0.45651 8.57029,0.45651 l 2.017209,3.56692 3.129688,-0.92656 4.657816,1.02813 3.221488,-1.02849 2.650384,-0.0762 0.287496,-3.40157 3.716936,-4.20222 h 2.638997 l 1.30203,1.16584 2.53736,-1.16518 3.02099,1.8197 0.81963,4.65999 5.03999,-3.5e-4 2.20076,2.19975 4.27923,0.33273 0.60901,-1.70158 11.73351,-7.09305 3.49688,0.0218 0.53853,1.44023 7.38178,4e-4 1.84581,-1.2004 3.53167,0.0482 2.0147,1.00844 2.87016,0.14336 1.4986,-3.84179 0.23906,-5.0375 1.84531,1.2 3.91498,-3.12171 0.96002,-7.1986 1.30757,-1.2004 7.81241,1.2e-4 -0.16383,6.40303 2.24107,1.51697 0.32276,1.64589 1.201,2.19411 5.279,1.2 -0.239,3.7324 -1.441,1.5476 v 4.9324 l -3.45299,0.88945 4.27262,4.11778 1.11692,2.78037 4.75501,0.54079 -0.69156,3.53921 3.086,3.73792 1.954,3.94208 h 4.07173 l 3.60827,5.28 -1.68,5.04001 h -2.4 l -0.18703,2.4312 -2.16045,2.31628 -0.53252,1.73252 h -2.64 v 3.839 h 3.84 l 2.401,5.62031 -2.641,2.06069 v 3.19448 l -1.439,3.28552 h -4.85067 l -2.78248,4.12635 3.01963,1.82113 0.53252,1.73252 3.88485,2.51583 -0.18862,1.13172 1.21974,2.98804 -0.11597,1.73132 7.441,7.23309 v 3.84 l -2.43687,1.13196 0.0276,1.50804 v 0 l 1.2171,0.0102 0.95117,3.29185 -1.29265,0.59979 -1.23538,1.24996 0.7855,1.45912 1.3296,0.30924 -1.441,2.64 -2.16,0.72 -2.16,0.24 -1.2,0.72 -1.68,1.2 -1.68,0.239 -1.44,0.481 -0.48,0.72 v 3.12 l -0.48,0.48 -0.96,0.239 -2.16,-0.719 h -2.4 l -1.919,1.44 v 0 l 0.239,3.12 -0.96,0.96 h -0.96 l -3.359,-1.681 -4.081,-1.679 -2.64,-1.2 -2.4,-1.68 -1.2,-0.96 -2.639,-2.4 -1.681,-2.161 -0.72,-1.199 -2.16,-0.48 -3.12,0.719 -4.319,1.681 -3.601,1.68 -1.92,1.92 0.24,0.96 1.92,1.2 2.401,1.439 0.719,1.441 -1.44,0.719 -2.64,0.721 c 0,0 -4.32,0 -4.32,0 l -1.44,0.239 -3.6,1.441 c 0,0 -1.2,1.2 -1.92,1.2 -0.72,0 -3.359,-1.2 -3.359,-1.2 l -2.641,-1.2 -4.56,-2.16 -17.52,-3.84 -12.960001,-2.64 -13.199002,-2.641 -5.281,-2.639 -3.120001,-2.16 -3.36,0.48 -3.6,1.44 -1.679,1.44 -1.441,2.88 -4.559,-0.24 c 0,0 -4.559001,-0.72 -6.000001,-0.72 -1.441,0 -5.04,-0.72 -5.04,-0.72 l -4.561001,-2.64 1.920001,-5.52 3.36,-9.84 0.959999,-4.32 10e-7,-3.6 -0.719,-3.36001 1.678999,-1.92 1.68,-1.44 0.480001,-5.04099 0.72,-3.12 2.640001,-2.88001 1.921,-2.87899 -0.241,-3.12101 -4.080002,-3.12 -1.678999,-3.59899 -1e-6,-4.56001 1.199001,-7.67999 1.681,-6.72 1.920001,-4.32101 1.919,-0.959 1.68,-6.47999 z"
       id="path3810"
       inkscape:connector-curvature="0" />
    <path
       style="fill:none;stroke:#000000;stroke-width:0.80000001px;stroke-linecap:butt;stroke-linejoin:miter;stroke-opacity:1"
       d="m 195.51066,267.80705 8.64,3.84 5.28,0.96 6,-4.31999 4.56,-1.92101 6.48,0.481 14.4,5.28 8.401,-1.43999 c 0,0 2.879,-1.44 4.799,0.48 1.92,1.92 2.88,5.03999 2.88,5.03999 l 0.48,3.36001 1.44,3.36 c 0,0 6.72,3.12 6.72,3.12 l 10.801,-0.24 8.88,-2.401 6.239,-2.88001 8.16,-4.31899 2.641,-0.96001 4.559,2.159 3.361,0.48101 3.359,-1.44101 c 0,0 5.522,-0.239 5.761,0.481 0.239,0.72001 2.399,4.55901 2.399,4.55901 l 2.4,13.68099 1.201,6.72001 2.88,7.91999 2.399,2.16001 4.8,1.92 7.2,-1.20001 5.28,-0.72 6,1.20001 3.12,2.63999 -0.719,5.04001 -5.04,2.4 -4.321,0.96 0.48,2.4 0.24,7.44 1.44,2.399 4.32,1.44099 2.4,6.479 -0.24,5.281 1.92,4.08 3.12,6.24 0.24,6.24 1.92,2.88 5.04,3.359 1.92,5.281 0.24,5.52 v 7.68 l 3.361,4.32 -6,2.64 -4.08,1.68 -2.88,3.6 3.119,13.92 -7.13742,1.44362 -4.08434,0.7094 -2.4273,2.45714 -3.96318,-0.84509 -0.96,-4.31173 0.24102,-5.28 -3.49692,-5.17408 -4.96376,4.5436 -5.05638,0.31341 -2.80394,-6.14739 3.41272,-8.46789 0.83219,-5.06369 -1.69435,-1.90372 -4.47054,-1.86024 -1.4152,4.08 h -9.86483 l -3.28552,-2.641 -2.95448,1.33341 v -5.17241 h 2.641 l 2.14721,-2.14823 5.16764,4.78823 1.3252,-7.07891 -7.1845,-2.28109 -2.84902,-0.0962 -8.44653,-3.63619 -0.0762,2.60839 -2.92203,0.82636 -3.33902,-1.09479 -1.21134,-2.20805 -1.0934,2.7579 1.57008,2.89027 3.71098,3.95183 1.44574,0.66076 -7.1548,6.50998 -2.93005,7.94972 -2.11347,1.05624 -1.93174,4.29156 -7.00735,3.69252 -6.11704,8.36828 -4.4314,0.5914 1.2,5.11448 -3.24781,5.81392 -3.68864,1.28806 -13.70255,12.26254 h -2.641 l 0.13233,1.31456 -2.53133,1.32644 -2.27245,-2.63878 -1.20502,0.83496 -0.60253,9.48382 -3.39411,1.2 -0.68689,2.64 -6.24,1.2 -2.5919,2.35291 -6.462,2.40725 -5.279,-4.80001 -6.241,-6.96 -4.32,-7.2 -0.239,-13.19999 -1.921,-6.00001 -4.079,-1.20007 -1.3296,-0.30924 -0.7855,-1.45912 2.52803,-1.84975 -2.16827,-3.30205 v 0 l -0.0276,-1.50804 2.43687,-1.13196 v -3.84 l -7.441,-7.23308 -1.10377,-4.7193 0.18862,-1.13171 -3.88485,-2.51591 -0.53252,-1.73252 -3.01963,-1.82113 2.78248,-4.12635 4.85067,7e-5 1.439,-3.28552 v -3.19448 l 2.641,-2.06076 -2.401,-5.62024 -3.84,-7e-5 v -3.839 h 2.64 l 0.53252,-1.73252 2.16045,-2.31628 0.18703,-2.43113 2.4,-7e-5 1.68,-5.03994 -3.60827,-5.28007 h -4.07173 l -1.954,-3.94208 -3.086,-3.73785 0.69156,-3.53921 -4.75501,-0.54086 -1.11692,-2.78037 -4.27262,-4.11778 3.45299,-0.88937 v -4.93248 l 1.441,-1.54752 0.239,-3.73241 -5.279,-1.2 -1.201,-2.19418 -0.32276,-1.64589 -2.24107,-1.51697 0.16383,-6.40303 1.44096,-3.84028 4.08004,-1.19965 2.21996,-3.38941 -0.78096,-1.65059 4.23204,-3.99227 3.11454,-1.70558 0.77199,-4.81394 -1.15792,-5.08918 2.87968,-2.39844 1.43907,-2.64062 0.24163,-7.51445 z"
       id="path3812"
       inkscape:connector-curvature="0" />
    <path
       style="fill:none;stroke:#000000;stroke-width:0.80000001px;stroke-linecap:butt;stroke-linejoin:miter;stroke-opacity:1"
       d="m 220.20449,461.61953 6.942,-1.92625 2.5919,-2.35291 6.24,-1.2 0.68689,-2.64 3.39411,-1.2 0.60253,-9.48382 1.20502,-0.83496 2.27245,2.63878 2.53133,-1.32644 -0.13233,-1.31456 h 2.641 l 13.70255,-12.26254 3.68864,-1.28806 3.24781,-5.81392 -1.2,-5.11448 4.4314,-0.5914 6.11704,-8.36828 7.00735,-3.69252 1.93174,-4.29156 2.11347,-1.05624 2.93005,-7.94972 7.1548,-6.50998 -1.44574,-0.66076 -3.71098,-3.95183 -1.57008,-2.89027 1.0934,-2.7579 1.21134,2.20805 3.33902,1.09479 2.92203,-0.82636 0.0762,-2.60839 8.44653,3.63619 2.84902,0.0962 7.1845,2.28109 -1.3252,7.07891 -5.16764,-4.78823 -2.14721,2.14823 h -2.641 v 5.17241 l 2.95448,-1.33341 3.28552,2.641 h 9.86483 l 1.4152,-4.08 4.47054,1.86024 1.69435,1.90372 -0.83219,5.06369 -3.41272,8.46789 2.80394,6.1474 5.05638,-0.31342 4.96376,-4.5436 3.49692,5.17408 -0.24102,5.28 0.96,4.31174 3.96318,0.84508 2.4273,-2.45714 11.22176,-2.15302 1.44,5.04 1.441,6.72 1.199,3.599 1.44,2.641 1.92,2.16 4.56,1.92 5.28,1.44 1.92,1.44 1.44,2.399 1.201,3.361 0.96,3.599 0.239,4.561 1.2,3.12 2.641,2.88 3.359,2.399 4.08,1.681 3.84,0.479 2.61383,0.37447 -0.48,1.92 -1.43999,1.67901 -5.52,0.721 -5.04,-1.44 -1.92002,-10e-6 -2.88,0.96 -5.519,0.72 -3.841,-0.72 -0.47998,0.48001 1.67998,3.35899 -1.92,0.241 -3.12,-1.92 -5.03998,-3.11999 -2.64002,-1.68001 -2.639,0.24 -0.721,6 -0.71998,2.40001 -2.63902,-0.24101 -1.441,-0.719 -3.84,-1.44 -2.88,2.159 -0.23998,1.92101 0.72,1.44 -0.96002,0.95999 -2.88,-0.241 -2.64,-0.479 -1.679,1.92 -0.481,1.92 0.72,3.36 -1.67998,1.68001 -3.59902,0.71999 -4.07998,1e-5 -3.60102,-1.92001 -4.56,-0.241 -2.64,2.641 -0.96,1.92 -0.72,2.399 -2.16,0.481 -1.92,-1.441 -2.16,1.201 -1.92,2.4 -0.239,4.32 -0.72098,1.44001 -2.16002,-1e-5 -2.63998,-1.91999 -2.88002,-2.40101 -1.44,1.92 -1.199,3.601 -2.16098,1.92001 -4.56002,2.63899 -4.31898,-1.19999 -7.201,-1.439 -2.87902,-0.24001 -2.401,0.48 -5.04,3.6 h -2.399 l -3.12,-2.401 -1.92,0.481 -0.48098,0.71901 -1.20002,4.56099 -2.16,1.92 -6.23898,10e-6 -9.84,-1.681 -3.12002,-0.23901 -3.361,0.96 -3.35998,2.64001 -1.44002,-1.20101 0.241,-1.919 -1.921,-3.36 -0.239,-3.36 0.719,-2.16 1.92,-0.48 2.88,-0.96 1.44,-2.881 -0.24,-3.119 -2.63898,-3.35999 -2.64102,-1.68001 -2.16,-2.64 -0.72,-1.92 -1.92,-2.88 -0.479,-2.88 -1.20099,-1.19999 -2.4,0.23999 -0.96,0.479 -1.439,1.92 -1.201,-0.96 -1.919,-4.319 -0.241,-3.60099 0.241,-3.12001 0.96,-2.399 0.959,-2.16 -0.24,-2.401 z"
       id="path3818"
       inkscape:connector-curvature="0" />
  </g>
</svg>
